<?xml version="1.0" encoding="UTF-8" standalone="no"?>
<!-- Created with Inkscape (http://www.inkscape.org/) -->

<svg
   width="169.21945mm"
   height="169.21947mm"
   viewBox="0 0 169.21945 169.21947"
   version="1.1"
   id="svg1"
   inkscape:version="1.3.2 (091e20e, 2023-11-25, custom)"
   sodipodi:docname="BG.svg"
   xmlns:inkscape="http://www.inkscape.org/namespaces/inkscape"
   xmlns:sodipodi="http://sodipodi.sourceforge.net/DTD/sodipodi-0.dtd"
   xmlns="http://www.w3.org/2000/svg"
   xmlns:svg="http://www.w3.org/2000/svg">
  <sodipodi:namedview
     id="namedview1"
     pagecolor="#ffffff"
     bordercolor="#000000"
     borderopacity="0.25"
     inkscape:showpageshadow="2"
     inkscape:pageopacity="0.0"
     inkscape:pagecheckerboard="0"
     inkscape:deskcolor="#d1d1d1"
     inkscape:document-units="mm"
     inkscape:zoom="0.57863851"
     inkscape:cx="403.53346"
     inkscape:cy="623.01418"
     inkscape:window-width="1920"
     inkscape:window-height="1027"
     inkscape:window-x="-8"
     inkscape:window-y="-8"
     inkscape:window-maximized="1"
     inkscape:current-layer="layer1"
     showgrid="false" />
  <defs
     id="defs1" />
  <g
     inkscape:label="Layer 1"
     inkscape:groupmode="layer"
     id="layer1"
     transform="translate(-11.097856,-64.335922)">
    <g
       id="g32"
       transform="translate(0,-55.754513)"
       inkscape:export-filename="BG_filled.svg"
       inkscape:export-xdpi="96"
       inkscape:export-ydpi="96"
       style="display:none">
      <g
         id="g30"
         transform="translate(-23.588448)">
        <rect
           style="fill:#000000;stroke:#000000;stroke-width:0.264583;stroke-dasharray:none;stroke-opacity:1"
           id="rect28"
           width="54.682308"
           height="54.682308"
           x="24.660648"
           y="26.090246" />
        <rect
           style="fill:#000000;stroke:#000000;stroke-width:0.264583;stroke-dasharray:none;stroke-opacity:1"
           id="rect29"
           width="54.682308"
           height="54.681999"
           x="24.660646"
           y="80.772552" />
        <ellipse
           style="fill:#000000;stroke:#000000;stroke-width:0.264583;stroke-dasharray:none;stroke-opacity:1"
           id="path30"
           cx="79.342957"
           cy="53.4314"
           rx="27.34115"
           ry="27.341152" />
        <ellipse
           style="fill:#000000;stroke:#000000;stroke-width:0.264583;stroke-dasharray:none;stroke-opacity:1"
           id="ellipse30"
           cx="79.342957"
           cy="108.1134"
           rx="27.34115"
           ry="27.341152" />
      </g>
      <path
         style="fill:#000000;stroke:#000000;stroke-width:0.264583;stroke-dasharray:none;stroke-opacity:1"
         id="path31"
         sodipodi:type="arc"
         sodipodi:cx="137.77797"
         sodipodi:cy="80.7724"
         sodipodi:rx="54.682312"
         sodipodi:ry="54.682156"
         sodipodi:start="0"
         sodipodi:end="5.4977871"
         sodipodi:arc-type="slice"
         d="M 192.46028,80.7724 A 54.682312,54.682156 0 0 1 148.44596,134.40385 54.682312,54.682156 0 0 1 87.258101,101.69836 54.682312,54.682156 0 0 1 107.3981,35.30585 54.682312,54.682156 0 0 1 176.4442,42.106275 L 137.77797,80.7724 Z" />
    </g>
    <g
       id="g40"
       inkscape:export-filename="BG_stroke_intersecting.svg"
       inkscape:export-xdpi="96"
       inkscape:export-ydpi="96"
       style="display:none">
      <g
         id="g51"
         inkscape:export-filename="BG_stroke_intersecting.svg"
         inkscape:export-xdpi="96"
         inkscape:export-ydpi="96">
        <path
           d="m 55.793531,90.025145 -27.286707,5.17e-4 H 1.2206346 v 54.759968 54.75945 H 28.506824 55.793531 v -0.0481 c 0.03117,0.003 0.06235,0.006 0.09353,0.009 15.099881,-1e-4 27.340865,-12.24108 27.340967,-27.34097 1.83e-4,-15.10008 -12.240884,-27.34138 -27.340967,-27.34148 -0.03118,0.003 -0.06236,0.006 -0.09353,0.009 v -0.047 H 28.506824 l 27.286707,-5.2e-4 v -0.0475 c 0.03117,0.003 0.06235,0.006 0.09353,0.009 15.100053,-1e-4 27.34115,-12.24144 27.340967,-27.34148 -1.02e-4,-15.09986 -12.241116,-27.340866 -27.340967,-27.340968 -0.03118,0.003 -0.06236,0.0061 -0.09353,0.0093 z"
           style="display:inline;fill:none;stroke:#ffffff;stroke-width:6.61458;stroke-linecap:round;stroke-linejoin:round;stroke-dasharray:none;stroke-opacity:1"
           id="path51" />
        <path
           d="m 55.793531,90.025145 -27.286707,5.17e-4 H 1.2206346 v 54.759968 54.75945 H 28.506824 55.793531 v -0.0481 c 0.03117,0.003 0.06235,0.006 0.09353,0.009 15.099881,-1e-4 27.340865,-12.24108 27.340967,-27.34097 1.83e-4,-15.10008 -12.240884,-27.34138 -27.340967,-27.34148 -0.03118,0.003 -0.06236,0.006 -0.09353,0.009 v -0.047 H 28.506824 l 27.286707,-5.2e-4 v -0.0475 c 0.03117,0.003 0.06235,0.006 0.09353,0.009 15.100053,-1e-4 27.34115,-12.24144 27.340967,-27.34148 -1.02e-4,-15.09986 -12.241116,-27.340866 -27.340967,-27.340968 -0.03118,0.003 -0.06236,0.0061 -0.09353,0.0093 z"
           style="display:inline;fill:none;stroke:#000000;stroke-width:2.64583;stroke-linecap:round;stroke-linejoin:round"
           id="path39" />
      </g>
      <g
         id="g44">
        <path
           style="display:inline;fill:none;stroke:#ffffff;stroke-width:6.61458;stroke-dasharray:none;stroke-opacity:1"
           id="path44"
           sodipodi:type="arc"
           sodipodi:cx="95.70919"
           sodipodi:cy="144.78271"
           sodipodi:rx="54.682312"
           sodipodi:ry="54.682156"
           sodipodi:start="0"
           sodipodi:end="5.4977871"
           sodipodi:arc-type="slice"
           d="m 150.3915,144.78271 a 54.682312,54.682156 0 0 1 -44.01432,53.63146 54.682312,54.682156 0 0 1 -61.187858,-32.7055 54.682312,54.682156 0 0 1 20.140002,-66.392505 54.682312,54.682156 0 0 1 69.046096,6.800425 l -38.66623,38.66612 z" />
        <path
           style="display:inline;fill:none;stroke:#000000;stroke-width:2.64583;stroke-dasharray:none;stroke-opacity:1"
           id="path40"
           sodipodi:type="arc"
           sodipodi:cx="95.70919"
           sodipodi:cy="144.78271"
           sodipodi:rx="54.682312"
           sodipodi:ry="54.682156"
           sodipodi:start="0"
           sodipodi:end="5.4977871"
           sodipodi:arc-type="slice"
           d="m 150.3915,144.78271 a 54.682312,54.682156 0 0 1 -44.01432,53.63146 54.682312,54.682156 0 0 1 -61.187858,-32.7055 54.682312,54.682156 0 0 1 20.140002,-66.392505 54.682312,54.682156 0 0 1 69.046096,6.800425 l -38.66623,38.66612 z" />
      </g>
    </g>
    <g
       id="g97"
       style="display:none">
      <path
         d="m 37.74657,146.10958 c -0.0196,-0.88341 -0.0192,-1.76553 0.0016,-2.64635 h -9.24233 a 1.3232422,1.3232422 0 0 0 0,2.64635 h 0.0021 z"
         style="stroke-linecap:round;stroke-linejoin:round"
         id="path97"
         inkscape:export-filename="BG_stroke_intersecting.svg"
         inkscape:export-xdpi="96"
         inkscape:export-ydpi="96" />
      <path
         d="m 70.310474,196.89873 c -0.95084,-0.4636 -1.88503,-0.95973 -2.809131,-1.47433 -3.488545,1.74283 -7.411116,2.7497 -11.579655,2.75538 h -0.0016 a 1.3230472,1.3230472 0 0 0 -0.0021,0 c -0.01073,1e-5 -0.02079,0.004 -0.03152,0.004 h 0.01964 a 1.3230472,1.3230472 0 0 0 -0.115239,0.0393 H 28.505791 2.5430345 V 144.78511 91.347545 H 28.505791 a 1.3230472,1.3230472 0 0 0 0.0021,0 h 27.285156 l -0.0041,-0.0036 a 1.3230472,1.3230472 0 0 0 0.129191,0.04082 l -0.03152,0.0021 c 4.180683,2.8e-5 8.114989,1.0067 11.612728,2.753837 0.924636,-0.515482 1.853705,-1.019071 2.797246,-1.479496 -4.238774,-2.47686 -9.152643,-3.920655 -14.409974,-3.920691 a 1.3230472,1.3230472 0 0 0 -0.05271,0.0036 1.3230472,1.3230472 0 0 0 -0.04082,-0.04082 H 28.505791 1.2206346 a 1.3230472,1.3230472 0 0 0 -1.32239992,1.321883 v 54.759962 54.75997 a 1.3230472,1.3230472 0 0 0 1.32239992,1.32188 H 28.505791 55.793014 a 1.3230472,1.3230472 0 0 0 0.04082,-0.0408 1.3230472,1.3230472 0 0 0 0.05271,0.002 c 5.263231,-3e-5 10.181954,-1.44747 14.423926,-3.92947 z"
         style="stroke-linecap:round;stroke-linejoin:round"
         id="path96" />
      <path
         d="m 65.446688,194.2255 c -10.175428,-6.22373 -18.48123,-15.58417 -23.313822,-27.25105 -2.546537,-6.14786 -3.950517,-12.52547 -4.310331,-18.8805 h -9.314677 -0.0021 a 3.3076208,3.3076208 0 0 1 0,-6.6151 h 9.322428 c 1.025021,-17.70404 10.136694,-34.53747 25.664067,-44.912502 0.64391,-0.430246 1.305017,-0.8171 1.960604,-1.21853 -2.930017,-1.266868 -6.16112,-1.976601 -9.566342,-1.976624 l 0.232544,-0.01189 A 3.3076208,3.3076208 0 0 1 55.675676,93.21461 l 0.117305,0.117305 H 28.507858 a 3.3076208,3.3076208 0 0 1 -0.0021,0 H 4.5274095 V 144.7851 196.23881 H 28.505791 55.793014 l -0.107487,0.10748 a 3.3076208,3.3076208 0 0 1 0.410311,-0.13642 l -0.20929,-0.0103 c 3.402758,-2e-5 6.631807,-0.70872 9.56014,-1.97404 z"
         style="display:none"
         id="path95" />
      <path
         d="m 71.756381,99.360493 c -1.558986,0.823647 -3.097196,1.708037 -4.590418,2.705777 -13.669576,9.13369 -21.695269,23.86809 -22.700423,39.41258 h 8.020699 3.306775 a 3.3076208,3.3076208 0 0 1 0.03927,0.0388 3.3076208,3.3076208 0 0 1 0.05426,-0.002 c 0.0026,1e-5 0.0052,0 0.0078,0 a 3.3076208,3.3076208 0 0 1 0.201538,-0.0667 l -0.20929,-0.01 c 13.312598,-9e-5 24.03332,-10.72264 24.033159,-24.03523 -4.9e-5,-7.21209 -3.162833,-13.64566 -8.163326,-18.043857 z"
         style="display:none"
         id="path94" />
      <path
         d="m 76.236728,97.237625 c -0.876189,0.359656 -1.741737,0.757058 -2.602942,1.167887 5.07952,4.746168 8.270245,11.487208 8.270296,18.998838 1.74e-4,14.37298 -11.614014,25.9959 -25.982394,26.01547 h -0.0021 a 1.3230472,1.3230472 0 0 0 -0.0016,0 c -0.01073,1e-5 -0.02079,0.004 -0.03152,0.004 h 0.01964 a 1.3230472,1.3230472 0 0 0 -0.113172,0.0393 1.3230472,1.3230472 0 0 0 -0.0021,0 H 54.470614 44.366838 c -0.0227,0.88047 -0.01875,1.76284 0.0041,2.64635 H 55.79298 v -0.002 a 1.3230472,1.3230472 0 0 0 0.117306,0.0372 l -0.02377,0.002 c 14.385087,1e-4 26.018225,11.63245 26.018051,26.01754 -5.1e-5,7.50154 -3.182838,14.234 -8.25066,18.97868 0.858804,0.40864 1.72101,0.80615 2.601909,1.16686 5.123644,-5.18001 8.295048,-12.29491 8.295101,-20.14554 1.58e-4,-13.00878 -8.747911,-23.88428 -20.634916,-27.37921 11.886997,-3.49495 20.635074,-14.37201 20.634916,-27.38076 -5.3e-5,-7.86078 -3.178916,-14.98504 -8.314221,-20.166725 z"
         style="stroke-linecap:round;stroke-linejoin:round"
         id="path93" />
      <path
         d="m 44.463473,148.09395 c 0.356701,5.50153 1.573121,11.01997 3.780648,16.34939 4.731973,11.42396 13.193058,20.34441 23.49779,25.77931 5.009103,-4.39901 8.177747,-10.83909 8.177796,-18.05833 1.61e-4,-13.31264 -10.720522,-24.03307 -24.033159,-24.03316 l 0.20929,-0.01 a 3.3076208,3.3076208 0 0 1 -0.201021,-0.0667 h -0.0083 a 3.3076208,3.3076208 0 0 1 -0.05426,-0.002 3.3076208,3.3076208 0 0 1 -0.03927,0.0388 v 0.002 z"
         style="display:none"
         id="path92" />
      <path
         d="m 78.220586,96.491934 c 5.138939,5.484336 8.314683,12.829626 8.314738,20.912416 1.46e-4,12.02794 -7.043091,22.36713 -17.16226,27.38076 10.118614,5.01335 17.161638,15.35209 17.16226,27.37921 v 0.002 c -5.7e-4,8.07581 -3.171336,15.41538 -8.302853,20.89795 8.573443,3.10535 18.028363,3.99037 27.500129,2.10633 22.95519,-4.56606 39.56965,-24.00389 41.06209,-47.08033 H 87.724398 L 129.49239,106.32234 C 118.94763,97.059152 105.47317,92.580171 92.082272,93.52519 c -4.690344,0.331005 -9.353251,1.330956 -13.861686,2.966744 z"
         style="display:none"
         id="path91" />
      <path
         d="m 94.706918,88.788011 c -0.985751,0.01722 -1.97194,0.06044 -2.956926,0.129708 -5.911336,0.415686 -11.790297,1.770946 -17.401521,4.088123 -0.69068,0.285219 -1.368894,0.612666 -2.051038,0.927075 -0.922391,0.425142 -1.834981,0.878329 -2.739884,1.357023 -0.671981,0.355478 -1.345815,0.704748 -2.007113,1.089856 -0.99777,0.581054 -1.986002,1.188348 -2.956925,1.837097 -14.970263,10.002777 -23.762884,26.205667 -24.781434,43.261957 -0.03944,0.66041 -0.0672,1.32171 -0.0832,1.98438 -0.02126,0.88079 -0.02105,1.76285 -5.16e-4,2.64635 0.01537,0.66107 0.04111,1.3225 0.0801,1.98437 0.359217,6.09874 1.713621,12.21865 4.158403,18.12086 4.838988,11.68232 13.273304,20.97342 23.590291,26.97148 0.653608,0.37999 1.313995,0.74794 1.982308,1.10122 0.903908,0.47783 1.823862,0.9244 2.752803,1.35238 0.686083,0.31609 1.378157,0.61856 2.076876,0.90692 9.936916,4.10087 21.10394,5.38436 32.265728,3.16415 26.19697,-5.2109 45.07994,-28.21778 45.07994,-54.92792 v -1.32395 h -1.32395 -51.486781 l 37.341901,-37.3419 -0.93534,-0.93535 C 124.24405,94.115294 109.49318,88.529793 94.706918,88.788011 Z m -0.03101,2.641183 c 13.680502,-0.251214 27.292012,4.825115 37.746022,14.770156 l -39.906097,39.90609 h 56.437387 c -0.62047,24.88654 -18.30036,46.13183 -42.83408,51.01188 -10.154279,2.0198 -20.292633,0.96683 -29.425597,-2.52336 -0.687503,-0.26274 -1.386937,-0.49642 -2.062406,-0.78704 -0.885602,-0.38102 -1.741314,-0.82461 -2.604492,-1.25263 -0.655768,-0.32518 -1.314129,-0.64249 -1.955953,-0.99426 -10.362585,-5.67951 -18.862144,-14.77763 -23.658505,-26.35704 -2.309261,-5.57504 -3.597421,-11.35136 -3.955314,-17.10904 -0.04114,-0.6619 -0.06996,-1.32331 -0.0863,-1.98437 -0.02184,-0.88356 -0.02205,-1.76568 0,-2.64635 0.01662,-0.66378 0.0698,-1.32303 0.111104,-1.98438 1.011373,-16.19211 9.356054,-31.55681 23.58254,-41.06261 1.30786,-0.87388 2.651134,-1.659369 4.008541,-2.404502 0.637413,-0.349901 1.273789,-0.703104 1.920813,-1.024744 0.874182,-0.434562 1.760046,-0.830729 2.649967,-1.213879 0.672207,-0.289415 1.349701,-0.556821 2.02985,-0.817005 4.94972,-1.893461 10.091709,-3.040886 15.266252,-3.405477 0.91173,-0.06424 1.824234,-0.104692 2.736267,-0.121439 z"
         id="path90" />
    </g>
    <g
       id="g14"
       inkscape:export-filename="..\..\Desktop\favicon512.png"
       inkscape:export-xdpi="76.851685"
       inkscape:export-ydpi="76.851685"
       style="display:none">
      <rect
         style="fill:#ffffff;stroke-width:5.93424;stroke-linecap:round;stroke-linejoin:round;stroke-dasharray:none"
         id="rect13"
         width="169.21945"
         height="169.21945"
         x="11.097856"
         y="42.411816" />
      <g
         id="g13"
         transform="translate(20.691972,-33.454739)">
        <path
           d="m 67.341146,200.56672 c -2.696893,-1.37192 -5.299307,-2.92761 -7.774719,-4.67517 -1.202241,0.18382 -2.424746,0.30798 -3.679879,0.30799 l 0.20929,0.0103 a 3.3076225,3.3076225 0 0 0 -0.410311,0.13642 l 0.107487,-0.10748 H 28.505791 4.5274095 V 144.78511 93.33192 H 28.505791 a 3.3076225,3.3076225 0 0 0 0.0021,0 h 27.285156 l -0.117305,-0.117305 a 3.3076225,3.3076225 0 0 0 0.443383,0.144694 l -0.232544,0.01189 c 1.249398,9e-6 2.466322,0.123778 3.663343,0.305925 0.45489,-0.321776 0.904353,-0.649053 1.369942,-0.960148 2.075794,-1.386997 4.217827,-2.613586 6.399093,-3.723804 -3.537513,-1.43048 -7.39103,-2.237046 -11.432378,-2.237073 a 3.3076225,3.3076225 0 0 0 -0.05478,0.0015 3.3076225,3.3076225 0 0 0 -0.03876,-0.03876 H 28.505791 1.2206346 a 3.3076225,3.3076225 0 0 0 -3.3067749,3.306258 v 54.759963 54.75997 a 3.3076225,3.3076225 0 0 0 3.3067749,3.30625 H 28.505791 55.793014 a 3.3076225,3.3076225 0 0 0 0.04082,-0.0408 3.3076225,3.3076225 0 0 0 0.05271,0.002 c 4.049748,-3e-5 7.91109,-0.80974 11.454598,-2.24586 z"
           style="stroke-linecap:round;stroke-linejoin:round"
           id="path13" />
        <path
           d="m 33.190776,148.09395 c -0.1148,-2.21107 -0.108874,-4.41865 0.0098,-6.6151 h -4.694804 a 3.3076225,3.3076225 0 0 0 0,6.6151 h 0.0021 z"
           style="stroke-linecap:round;stroke-linejoin:round"
           id="path12" />
        <path
           d="m 81.307219,100.31341 c -2.136537,0.69448 -4.240808,1.53651 -6.291606,2.5523 3.066368,4.03466 4.904057,9.05854 4.904094,14.53864 1.61e-4,13.31258 -10.720562,24.03514 -24.033159,24.03523 l 0.20929,0.01 a 3.3076225,3.3076225 0 0 0 -0.201538,0.0667 c -0.0026,0 -0.0052,1e-5 -0.0078,0 a 3.3076225,3.3076225 0 0 0 -0.05426,0.002 3.3076225,3.3076225 0 0 0 -0.03927,-0.0388 h -3.306775 -3.387907 c -0.154626,2.19308 -0.155318,4.40038 0.0041,6.6151 h 6.690548 v -0.002 a 3.3076225,3.3076225 0 0 0 0.03927,-0.0388 3.3076225,3.3076225 0 0 0 0.05426,0.002 h 0.0083 a 3.3076225,3.3076225 0 0 0 0.201021,0.0667 l -0.20929,0.01 c 13.312637,9e-5 24.03332,10.72053 24.033159,24.03316 -3.7e-5,5.47206 -1.832476,10.48952 -4.890658,14.52159 2.02774,1.00066 4.116895,1.87499 6.275586,2.57349 3.299804,-4.88769 5.230242,-10.77134 5.230689,-17.09353 v -0.002 c -6.22e-4,-12.02714 -7.043646,-22.36586 -17.16226,-27.37921 10.11917,-5.01363 17.162406,-15.35282 17.16226,-27.38076 -4.3e-5,-6.32129 -1.929527,-12.20351 -5.228105,-17.09094 z"
           style="stroke-linecap:round;stroke-linejoin:round"
           id="path11" />
        <path
           d="m 94.669194,86.811388 c -1.020843,0.01778 -2.041805,0.06221 -3.061828,0.133842 -6.517329,0.457677 -12.98748,2.042903 -19.132683,4.732527 -2.398176,1.049631 -4.742355,2.274312 -7.021793,3.670061 -0.655582,0.401426 -1.3167,0.788288 -1.960604,1.21853 -15.527249,10.374942 -24.639055,27.208602 -25.664067,44.912502 -0.127117,2.19556 -0.13091,4.40338 -0.0057,6.6151 0.359813,6.355 1.763804,12.73266 4.310331,18.8805 4.832573,11.66683 13.138434,21.02734 23.313822,27.25105 2.255065,1.3793 4.59878,2.60863 7.020761,3.66955 10.573663,4.63163 22.570697,6.14669 34.553957,3.76307 27.11351,-5.39319 46.67777,-29.23045 46.67777,-56.87508 3.9e-4,-1.82728 -1.48104,-3.30871 -3.30832,-3.30832 h -46.69741 l 33.02124,-33.01969 c 1.29174,-1.2917 1.29174,-3.38605 0,-4.67775 C 125.26093,92.323553 109.98185,86.544665 94.669194,86.811388 Z m -0.07596,6.600114 c 12.552626,-0.252658 25.013546,4.226686 34.899156,12.910838 l -36.121304,36.12079 c -2.083699,2.08331 -0.608678,5.64599 2.337842,5.64669 h 51.085762 c -1.49243,23.07621 -18.10713,42.51432 -41.06209,47.08033 -9.471667,1.88402 -18.926768,0.99899 -27.500125,-2.10633 -2.22598,-0.80627 -4.400988,-1.7391 -6.49056,-2.84117 -10.304691,-5.43488 -18.765836,-14.3554 -23.49779,-25.77931 -2.207518,-5.3294 -3.423948,-10.84788 -3.780648,-16.34939 -0.14353,-2.21371 -0.139848,-4.42041 0.0021,-6.6151 1.005146,-15.54436 9.030956,-30.27896 22.700423,-39.41258 1.49321,-0.99773 3.031445,-1.88213 4.590418,-2.705777 2.10692,-1.11314 4.265077,-2.070653 6.464205,-2.868559 4.50839,-1.635772 9.171389,-2.635742 13.861686,-2.966744 0.836923,-0.05906 1.674116,-0.09684 2.510958,-0.113688 z"
           style="stroke-linecap:round;stroke-linejoin:round"
           id="path10" />
      </g>
    </g>
    <g
       id="g88"
       inkscape:export-filename="..\..\Desktop\favicon512_2.png"
       inkscape:export-xdpi="76.851685"
       inkscape:export-ydpi="76.851685">
      <rect
         style="display:inline;fill:#ffffff;stroke-width:5.93424;stroke-linecap:round;stroke-linejoin:round;stroke-dasharray:none"
         id="rect13-9"
         width="169.21945"
         height="169.21945"
         x="11.097856"
         y="64.33593" />
      <path
         d="m 98.122213,76.299885 c 5.138937,5.484341 8.314167,12.829109 8.314217,20.911902 1.5e-4,12.027933 -7.04257,22.367643 -17.161739,27.381273 10.118614,5.01335 17.161119,15.35157 17.161739,27.37869 v 0.002 c -5.7e-4,8.07584 -3.17129,15.41485 -8.302848,20.89743 8.573558,3.10548 18.028198,3.99041 27.500128,2.10633 22.95519,-4.56605 39.57016,-24.00336 41.06261,-47.07981 h -51.08577 a 3.3076208,3.3076208 0 0 1 -2.33784,-5.64668 L 149.3935,86.129776 c -10.54476,-9.26319 -24.01922,-13.741654 -37.41012,-12.796635 -4.69035,0.331006 -9.35272,1.330951 -13.861167,2.966744 z"
         style="stroke-linecap:round;stroke-linejoin:round"
         id="path88" />
      <path
         d="m 91.658008,79.16896 c -1.558911,0.823622 -3.097264,1.707571 -4.590417,2.705261 -13.66958,9.133696 -21.69579,23.867569 -22.70094,39.412069 h 8.021216 3.306775 a 3.3076208,3.3076208 0 0 1 0.03876,0.0393 3.3076208,3.3076208 0 0 1 0.05478,-0.002 c 0.0026,1e-5 0.0052,0 0.0078,0 a 3.3076208,3.3076208 0 0 1 0.201538,-0.0661 l -0.20929,-0.0103 C 89.100828,121.2471 99.821549,110.52455 99.821388,97.211967 99.82134,90.000134 96.658242,83.56733 91.658062,79.16914 Z"
         style="stroke-linecap:round;stroke-linejoin:round"
         id="path87" />
      <path
         d="m 64.365101,127.9019 c 0.356737,5.5014 1.573178,11.0201 3.780648,16.34939 4.731979,11.42398 13.193039,20.34441 23.49779,25.77931 5.009102,-4.39901 8.177747,-10.83909 8.177795,-18.05833 1.61e-4,-13.31264 -10.720521,-24.03307 -24.033158,-24.03316 l 0.20929,-0.0103 a 3.3076208,3.3076208 0 0 1 -0.201538,-0.0661 h -0.0078 a 3.3076208,3.3076208 0 0 1 -0.05478,-0.002 3.3076208,3.3076208 0 0 1 -0.03876,0.0393 v 0.002 z"
         style="stroke-linecap:round;stroke-linejoin:round"
         id="path86" />
      <path
         d="m 75.577336,73.022565 0.117306,0.117306 h -27.285157 -0.0021 -23.978381 v 51.453189 51.45371 h 23.978381 27.287224 l -0.107487,0.10748 c 0.133635,-0.0545 0.270699,-0.10029 0.410311,-0.13694 l -0.20929,-0.01 c 3.40283,-2e-5 6.631758,-0.70918 9.56014,-1.97455 -10.175368,-6.22372 -18.481254,-15.58372 -23.313822,-27.25054 -2.546531,-6.14785 -3.950517,-12.52549 -4.310332,-18.8805 -0.06251,-1.10402 -0.102056,-2.20751 -0.101285,-3.30884 7.73e-4,-1.10511 0.04329,-2.20706 0.10697,-3.30677 1.025109,-17.70389 10.136818,-34.537044 25.664066,-44.911991 0.644062,-0.430347 1.305377,-0.81753 1.961121,-1.219047 -2.930124,-1.266983 -6.161477,-1.976601 -9.566858,-1.976624 l 0.232544,-0.01137 c -0.151015,-0.03774 -0.299178,-0.08609 -0.443384,-0.144694 z"
         style="stroke-linecap:round;stroke-linejoin:round"
         id="path85" />
    </g>
  </g>
</svg>
