<?xml version="1.0" encoding="UTF-8" standalone="no"?>
<!-- Created with Inkscape (http://www.inkscape.org/) -->

<svg
   width="142.2673mm"
   height="103.13187mm"
   viewBox="0 0 142.2673 103.13187"
   version="1.1"
   id="svg1"
   inkscape:version="1.3.2 (091e20e, 2023-11-25, custom)"
   sodipodi:docname="BG.svg"
   xmlns:inkscape="http://www.inkscape.org/namespaces/inkscape"
   xmlns:sodipodi="http://sodipodi.sourceforge.net/DTD/sodipodi-0.dtd"
   xmlns="http://www.w3.org/2000/svg"
   xmlns:svg="http://www.w3.org/2000/svg">
  <sodipodi:namedview
     id="namedview1"
     pagecolor="#ffffff"
     bordercolor="#000000"
     borderopacity="0.25"
     inkscape:showpageshadow="2"
     inkscape:pageopacity="0.0"
     inkscape:pagecheckerboard="0"
     inkscape:deskcolor="#d1d1d1"
     inkscape:document-units="mm"
     inkscape:zoom="0.74029882"
     inkscape:cx="350.53413"
     inkscape:cy="669.32431"
     inkscape:window-width="1920"
     inkscape:window-height="1027"
     inkscape:window-x="-8"
     inkscape:window-y="-8"
     inkscape:window-maximized="1"
     inkscape:current-layer="layer1" />
  <defs
     id="defs1" />
  <g
     inkscape:label="Layer 1"
     inkscape:groupmode="layer"
     id="layer1"
     transform="translate(-24.429006,-73.022392)">
    <g
       id="g88"
       inkscape:export-filename="BG_fill_intersecting.svg"
       inkscape:export-xdpi="76.851685"
       inkscape:export-ydpi="76.851685">
      <rect
         style="display:none;fill:#ffffff;stroke-width:5.93424;stroke-linecap:round;stroke-linejoin:round;stroke-dasharray:none"
         id="rect13-9"
         width="169.21945"
         height="169.21945"
         x="11.097856"
         y="64.33593" />
      <path
         d="m 98.122213,76.299885 c 5.138937,5.484341 8.314167,12.829109 8.314217,20.911902 1.5e-4,12.027933 -7.04257,22.367643 -17.161739,27.381273 10.118614,5.01335 17.161119,15.35157 17.161739,27.37869 v 0.002 c -5.7e-4,8.07584 -3.17129,15.41485 -8.302848,20.89743 8.573558,3.10548 18.028198,3.99041 27.500128,2.10633 22.95519,-4.56605 39.57016,-24.00336 41.06261,-47.07981 h -51.08577 a 3.3076208,3.3076208 0 0 1 -2.33784,-5.64668 L 149.3935,86.129776 c -10.54476,-9.26319 -24.01922,-13.741654 -37.41012,-12.796635 -4.69035,0.331006 -9.35272,1.330951 -13.861167,2.966744 z"
         style="stroke-linecap:round;stroke-linejoin:round"
         id="path88" />
      <path
         d="m 91.658008,79.16896 c -1.558911,0.823622 -3.097264,1.707571 -4.590417,2.705261 -13.66958,9.133696 -21.69579,23.867569 -22.70094,39.412069 h 8.021216 3.306775 a 3.3076208,3.3076208 0 0 1 0.03876,0.0393 3.3076208,3.3076208 0 0 1 0.05478,-0.002 c 0.0026,1e-5 0.0052,0 0.0078,0 a 3.3076208,3.3076208 0 0 1 0.201538,-0.0661 l -0.20929,-0.0103 C 89.100828,121.2471 99.821549,110.52455 99.821388,97.211967 99.82134,90.000134 96.658242,83.56733 91.658062,79.16914 Z"
         style="stroke-linecap:round;stroke-linejoin:round"
         id="path87" />
      <path
         d="m 64.365101,127.9019 c 0.356737,5.5014 1.573178,11.0201 3.780648,16.34939 4.731979,11.42398 13.193039,20.34441 23.49779,25.77931 5.009102,-4.39901 8.177747,-10.83909 8.177795,-18.05833 1.61e-4,-13.31264 -10.720521,-24.03307 -24.033158,-24.03316 l 0.20929,-0.0103 a 3.3076208,3.3076208 0 0 1 -0.201538,-0.0661 h -0.0078 a 3.3076208,3.3076208 0 0 1 -0.05478,-0.002 3.3076208,3.3076208 0 0 1 -0.03876,0.0393 v 0.002 z"
         style="stroke-linecap:round;stroke-linejoin:round"
         id="path86" />
      <path
         d="m 75.577336,73.022565 0.117306,0.117306 h -27.285157 -0.0021 -23.978381 v 51.453189 51.45371 h 23.978381 27.287224 l -0.107487,0.10748 c 0.133635,-0.0545 0.270699,-0.10029 0.410311,-0.13694 l -0.20929,-0.01 c 3.40283,-2e-5 6.631758,-0.70918 9.56014,-1.97455 -10.175368,-6.22372 -18.481254,-15.58372 -23.313822,-27.25054 -2.546531,-6.14785 -3.950517,-12.52549 -4.310332,-18.8805 -0.06251,-1.10402 -0.102056,-2.20751 -0.101285,-3.30884 7.73e-4,-1.10511 0.04329,-2.20706 0.10697,-3.30677 1.025109,-17.70389 10.136818,-34.537044 25.664066,-44.911991 0.644062,-0.430347 1.305377,-0.81753 1.961121,-1.219047 -2.930124,-1.266983 -6.161477,-1.976601 -9.566858,-1.976624 l 0.232544,-0.01137 c -0.151015,-0.03774 -0.299178,-0.08609 -0.443384,-0.144694 z"
         style="stroke-linecap:round;stroke-linejoin:round"
         id="path85" />
    </g>
  </g>
</svg>
